<svg width="255" height="83" viewBox="0 0 255 83" fill="none" xmlns="http://www.w3.org/2000/svg">
<path d="M18.8645 66.0146L1.47368 22.9986H9.15512L22.7359 57.8416H20.032L33.7357 22.9986H41.2943L23.7806 66.0146H18.8645ZM54.9125 66.6292C51.9628 66.6292 49.2999 65.9737 46.9238 64.6627C44.5887 63.3108 42.7246 61.4672 41.3317 59.1321C39.9798 56.7969 39.3038 54.175 39.3038 51.2663C39.3038 48.3576 39.9798 45.7561 41.3317 43.4619C42.6837 41.1268 44.5067 39.2832 46.8009 37.9313C49.1361 36.5794 51.717 35.9034 54.5438 35.9034C57.2886 35.9034 59.7057 36.5384 61.7951 37.8084C63.9254 39.0784 65.5846 40.8195 66.7727 43.0318C68.0017 45.244 68.6162 47.7635 68.6162 50.5903C68.6162 51.0819 68.5753 51.594 68.4933 52.1266C68.4523 52.6182 68.3704 53.1713 68.2475 53.7858H44.0356V48.2552H64.7448L62.2253 50.4674C62.1433 48.6648 61.7951 47.149 61.1806 45.92C60.5661 44.691 59.6853 43.7487 58.5382 43.0932C57.432 42.4377 56.0596 42.11 54.4209 42.11C52.7003 42.11 51.2049 42.4787 49.9349 43.2161C48.6649 43.9535 47.6817 44.9982 46.9853 46.3502C46.2888 47.6611 45.9406 49.2384 45.9406 51.0819C45.9406 52.9255 46.3093 54.5437 47.0467 55.9366C47.7841 57.3295 48.8288 58.4151 50.1808 59.1935C51.5327 59.9309 53.0895 60.2997 54.8511 60.2997C56.3669 60.2997 57.7598 60.0334 59.0298 59.5008C60.3407 58.9682 61.4469 58.1898 62.3482 57.1656L66.6498 61.5287C65.2159 63.2084 63.4748 64.4784 61.4264 65.3387C59.378 66.199 57.2067 66.6292 54.9125 66.6292ZM94.8671 66.0146V48.9926C94.8671 47.0261 94.2321 45.4079 92.9621 44.1379C91.733 42.8679 90.1353 42.2329 88.1688 42.2329C86.8579 42.2329 85.6903 42.5197 84.6661 43.0932C83.6419 43.6668 82.843 44.4656 82.2695 45.4898C81.696 46.514 81.4092 47.6816 81.4092 48.9926L78.7668 47.5177C78.7668 45.2645 79.2584 43.2776 80.2416 41.5569C81.2248 39.7953 82.5768 38.4229 84.2974 37.4397C86.059 36.4155 88.0255 35.9034 90.1968 35.9034C92.409 35.9034 94.3755 36.4769 96.0961 37.624C97.8167 38.7302 99.1687 40.1845 100.152 41.9871C101.135 43.7487 101.627 45.5922 101.627 47.5177V66.0146H94.8671ZM74.6495 66.0146V36.5179H81.4092V66.0146H74.6495ZM113.236 66.0146V24.2276H119.996V66.0146H113.236ZM106.169 42.6631V36.5179H127.063V42.6631H106.169ZM132.589 66.0146V36.5179H139.349V66.0146H132.589ZM139.349 49.6071L137.014 48.4395C137.014 44.7114 137.833 41.7003 139.472 39.4061C141.151 37.071 143.671 35.9034 147.03 35.9034C148.505 35.9034 149.837 36.1697 151.025 36.7023C152.213 37.2348 153.319 38.0952 154.343 39.2832L149.919 43.8306C149.386 43.2571 148.792 42.8474 148.136 42.6016C147.481 42.3558 146.723 42.2329 145.863 42.2329C143.978 42.2329 142.421 42.8269 141.192 44.015C139.963 45.2031 139.349 47.0671 139.349 49.6071ZM171.032 66.6292C168.082 66.6292 165.419 65.9737 163.043 64.6627C160.708 63.3108 158.844 61.4672 157.451 59.1321C156.099 56.7969 155.423 54.175 155.423 51.2663C155.423 48.3576 156.099 45.7561 157.451 43.4619C158.803 41.1268 160.626 39.2832 162.92 37.9313C165.255 36.5794 167.836 35.9034 170.663 35.9034C173.408 35.9034 175.825 36.5384 177.915 37.8084C180.045 39.0784 181.704 40.8195 182.892 43.0318C184.121 45.244 184.736 47.7635 184.736 50.5903C184.736 51.0819 184.695 51.594 184.613 52.1266C184.572 52.6182 184.49 53.1713 184.367 53.7858H160.155V48.2552H180.864L178.345 50.4674C178.263 48.6648 177.915 47.149 177.3 45.92C176.685 44.691 175.805 43.7487 174.658 43.0932C173.551 42.4377 172.179 42.11 170.54 42.11C168.82 42.11 167.324 42.4787 166.054 43.2161C164.784 43.9535 163.801 44.9982 163.105 46.3502C162.408 47.6611 162.06 49.2384 162.06 51.0819C162.06 52.9255 162.429 54.5437 163.166 55.9366C163.904 57.3295 164.948 58.4151 166.3 59.1935C167.652 59.9309 169.209 60.2997 170.97 60.2997C172.486 60.2997 173.879 60.0334 175.149 59.5008C176.46 58.9682 177.566 58.1898 178.468 57.1656L182.769 61.5287C181.335 63.2084 179.594 64.4784 177.546 65.3387C175.497 66.199 173.326 66.6292 171.032 66.6292ZM204.473 66.6292C201.523 66.6292 198.86 65.9737 196.484 64.6627C194.149 63.3108 192.285 61.4672 190.892 59.1321C189.54 56.7969 188.864 54.175 188.864 51.2663C188.864 48.3576 189.54 45.7561 190.892 43.4619C192.244 41.1268 194.067 39.2832 196.361 37.9313C198.696 36.5794 201.277 35.9034 204.104 35.9034C206.849 35.9034 209.266 36.5384 211.355 37.8084C213.486 39.0784 215.145 40.8195 216.333 43.0318C217.562 45.244 218.176 47.7635 218.176 50.5903C218.176 51.0819 218.135 51.594 218.053 52.1266C218.012 52.6182 217.931 53.1713 217.808 53.7858H193.596V48.2552H214.305L211.785 50.4674C211.703 48.6648 211.355 47.149 210.741 45.92C210.126 44.691 209.245 43.7487 208.098 43.0932C206.992 42.4377 205.62 42.11 203.981 42.11C202.26 42.11 200.765 42.4787 199.495 43.2161C198.225 43.9535 197.242 44.9982 196.545 46.3502C195.849 47.6611 195.501 49.2384 195.501 51.0819C195.501 52.9255 195.869 54.5437 196.607 55.9366C197.344 57.3295 198.389 58.4151 199.741 59.1935C201.093 59.9309 202.65 60.2997 204.411 60.2997C205.927 60.2997 207.32 60.0334 208.59 59.5008C209.901 58.9682 211.007 58.1898 211.908 57.1656L216.21 61.5287C214.776 63.2084 213.035 64.4784 210.986 65.3387C208.938 66.199 206.767 66.6292 204.473 66.6292Z" fill="white"/>
<path d="M233.967 0H222.077C222.077 17.9424 207.333 17.9424 201.316 17.9424V23.9232C213.088 23.9232 226.69 20.8317 228.07 6.02835C229.175 20.7009 242.956 23.9232 254.799 23.9232V17.9424C246.202 17.9424 233.967 17.8235 233.967 0Z" fill="#59DC59"/>
<path d="M233.967 50.6762H222.077C222.077 32.7338 207.333 32.7338 201.316 32.7338V26.753C213.088 26.753 226.69 29.8445 228.07 44.6478C229.175 29.9753 242.956 26.753 254.799 26.753V32.7338C246.202 32.7338 233.967 32.8527 233.967 50.6762Z" fill="#59DC59"/>
</svg>
